<svg width="24" height="24" viewBox="0 0 24 24" fill="none" xmlns="http://www.w3.org/2000/svg">
<path d="M12 6.528V3C12 2.73478 12.1053 2.48043 12.2929 2.29289C12.4804 2.10536 12.7348 2 13 2M12 6.528C12.8633 5.75584 13.9316 5.25005 15.0761 5.0717C16.2205 4.89334 17.3921 5.05004 18.4494 5.52288C19.5068 5.99572 20.4046 6.76449 21.0347 7.73638C21.6647 8.70828 22 9.84176 22 11C22.0156 14.6822 20.6762 18.2415 18.237 21C17.7893 21.5009 17.1864 21.837 16.525 21.9545C15.8635 22.072 15.1818 21.964 14.589 21.648C13.7922 21.2229 12.9031 21.0005 12 21.0005C11.0969 21.0005 10.2077 21.2229 9.41099 21.648C8.81818 21.964 8.13644 22.072 7.475 21.9545C6.81356 21.837 6.2107 21.5009 5.76299 21C3.33185 18.2367 1.99368 14.6805 1.99999 11C2.00002 9.84176 2.33528 8.70828 2.96532 7.73638C3.59536 6.76449 4.49323 5.99572 5.55056 5.52288C6.6079 5.05004 7.77949 4.89334 8.92392 5.0717C10.0683 5.25005 11.1367 5.75584 12 6.528Z" stroke="black" stroke-width="2" stroke-linecap="round" stroke-linejoin="round"/>
</svg>
