<svg width="32" height="32" viewBox="0 0 32 32" fill="none" xmlns="http://www.w3.org/2000/svg">
<path d="M18.6667 2.66669H8.00001C7.29277 2.66669 6.61449 2.94764 6.11439 3.44774C5.61429 3.94784 5.33334 4.62611 5.33334 5.33336V26.6667C5.33334 27.3739 5.61429 28.0522 6.11439 28.5523C6.61449 29.0524 7.29277 29.3334 8.00001 29.3334H24C24.7073 29.3334 25.3855 29.0524 25.8856 28.5523C26.3857 28.0522 26.6667 27.3739 26.6667 26.6667V10.6667M18.6667 2.66669C19.0887 2.66601 19.5068 2.74883 19.8967 2.91038C20.2866 3.07194 20.6408 3.30904 20.9387 3.60802L25.7227 8.39203C26.0225 8.69003 26.2602 9.04448 26.4223 9.43491C26.5843 9.82533 26.6674 10.244 26.6667 10.6667M18.6667 2.66669V9.33336C18.6667 9.68698 18.8072 10.0261 19.0572 10.2762C19.3072 10.5262 19.6464 10.6667 20 10.6667L26.6667 10.6667M12 20H20M16 24V16" stroke="black" stroke-width="2" stroke-linecap="round" stroke-linejoin="round"/>
</svg>
