<svg width="32" height="32" viewBox="0 0 32 32" fill="none" xmlns="http://www.w3.org/2000/svg">
<path d="M18.6627 5.33331C19.1437 5.33331 19.6158 5.46343 20.0289 5.70989C20.4421 5.95636 20.7808 6.30999 21.0093 6.73331L21.6573 7.93331C21.8858 8.35664 22.2246 8.71027 22.6377 8.95673C23.0508 9.2032 23.5229 9.33332 24.004 9.33331H26.6667C27.3739 9.33331 28.0522 9.61426 28.5523 10.1144C29.0524 10.6145 29.3333 11.2927 29.3333 12V24C29.3333 24.7072 29.0524 25.3855 28.5523 25.8856C28.0522 26.3857 27.3739 26.6666 26.6667 26.6666H5.33332C4.62608 26.6666 3.9478 26.3857 3.4477 25.8856C2.94761 25.3855 2.66666 24.7072 2.66666 24V12C2.66666 11.2927 2.94761 10.6145 3.4477 10.1144C3.9478 9.61426 4.62608 9.33331 5.33332 9.33331H7.99599C8.47655 9.33334 8.94819 9.2035 9.36103 8.95753C9.77387 8.71157 10.1126 8.35861 10.3413 7.93598L10.9933 6.73065C11.2221 6.30802 11.5608 5.95506 11.9736 5.70909C12.3865 5.46312 12.8581 5.33329 13.3387 5.33331H18.6627Z" stroke="white" stroke-width="2" stroke-linecap="round" stroke-linejoin="round"/>
<path d="M16 21.3333C18.2091 21.3333 20 19.5425 20 17.3333C20 15.1242 18.2091 13.3333 16 13.3333C13.7909 13.3333 12 15.1242 12 17.3333C12 19.5425 13.7909 21.3333 16 21.3333Z" stroke="white" stroke-width="2" stroke-linecap="round" stroke-linejoin="round"/>
</svg>
