<svg width="32" height="32" viewBox="0 0 32 32" fill="none" xmlns="http://www.w3.org/2000/svg">
<path d="M18.6666 2.66669H7.99992C7.29267 2.66669 6.6144 2.94764 6.1143 3.44774C5.6142 3.94784 5.33325 4.62611 5.33325 5.33336V26.6667C5.33325 27.3739 5.6142 28.0522 6.1143 28.5523C6.6144 29.0524 7.29267 29.3334 7.99992 29.3334H23.9999C24.7072 29.3334 25.3854 29.0524 25.8855 28.5523C26.3856 28.0522 26.6666 27.3739 26.6666 26.6667V10.6667M18.6666 2.66669C19.0887 2.66601 19.5067 2.74883 19.8966 2.91038C20.2866 3.07194 20.6407 3.30904 20.9386 3.60802L25.7226 8.39203C26.0224 8.69003 26.2601 9.04448 26.4222 9.43491C26.5842 9.82533 26.6673 10.244 26.6666 10.6667M18.6666 2.66669V9.33336C18.6666 9.68698 18.8071 10.0261 19.0571 10.2762C19.3072 10.5262 19.6463 10.6667 19.9999 10.6667L26.6666 10.6667M11.9999 20H19.9999M15.9999 24V16" stroke="#FEF8F6" stroke-width="2" stroke-linecap="round" stroke-linejoin="round"/>
</svg>
