<svg width="24" height="24" viewBox="0 0 24 24" fill="none" xmlns="http://www.w3.org/2000/svg">
<path d="M19.6499 15.66C18.1362 17.0957 16.1215 17.8832 14.0354 17.8546C11.9493 17.8261 9.95686 16.9838 8.48294 15.5072C7.00902 14.0307 6.17021 12.0368 6.14536 9.95067C6.12051 7.86454 6.91159 5.85122 8.34993 4.34M13.9999 10L8.49993 15.5M13.9999 10L13.9999 17.85M13.9999 10H6.14993M21.6599 17.67C21.7691 17.774 21.8552 17.8997 21.9129 18.039C21.9705 18.1783 21.9983 18.3282 21.9946 18.4789C21.9908 18.6296 21.9555 18.7778 21.891 18.9141C21.8265 19.0503 21.7341 19.1716 21.6199 19.27C19.3174 21.1624 16.393 22.1301 13.4161 21.9849C10.4392 21.8397 7.62293 20.5919 5.51546 18.4845C3.40799 16.377 2.1602 13.5607 2.01499 10.5838C1.86979 7.60695 2.83757 4.68257 4.72993 2.38C4.83009 2.26686 4.95249 2.17558 5.08949 2.11183C5.22649 2.04808 5.37516 2.01325 5.52622 2.00949C5.67728 2.00574 5.82749 2.03315 5.96749 2.09002C6.10749 2.14688 6.23427 2.23198 6.33993 2.34L21.6599 17.67Z" stroke="black" stroke-width="2" stroke-linecap="round" stroke-linejoin="round"/>
</svg>
