<svg width="32" height="32" viewBox="0 0 32 32" fill="none" xmlns="http://www.w3.org/2000/svg">
<path d="M13.7333 28H6.66667C5.95942 28 5.28115 27.719 4.78105 27.219C4.28095 26.7189 4 26.0406 4 25.3333V6.66667C4 5.95942 4.28095 5.28115 4.78105 4.78105C5.28115 4.28095 5.95942 4 6.66667 4H25.3333C26.0406 4 26.7189 4.28095 27.219 4.78105C27.719 5.28115 28 5.95942 28 6.66667V20L23.8667 15.8667C23.3649 15.3749 22.6894 15.101 21.9868 15.1045C21.2843 15.108 20.6115 15.3886 20.1147 15.8853L8 28M18.6667 26L22.6667 22M22.6667 22L26.6667 26M22.6667 22V29.3333M14.6667 12C14.6667 13.4728 13.4728 14.6667 12 14.6667C10.5272 14.6667 9.33333 13.4728 9.33333 12C9.33333 10.5272 10.5272 9.33333 12 9.33333C13.4728 9.33333 14.6667 10.5272 14.6667 12Z" stroke="white" stroke-width="2" stroke-linecap="round" stroke-linejoin="round"/>
</svg>
