<svg width="64" height="64" viewBox="0 0 64 64" fill="none" xmlns="http://www.w3.org/2000/svg">
<path d="M47.8 53.4827C47.2015 49.7222 45.2815 46.2984 42.3849 43.8267C39.4884 41.3549 35.8053 39.9972 31.9975 39.9975C28.1897 39.9978 24.5069 41.3562 21.6108 43.8284C18.7147 46.3007 16.7952 49.7247 16.1973 53.4853M42.6667 29.3333C42.6667 35.2244 37.891 40 32 40C26.109 40 21.3333 35.2244 21.3333 29.3333C21.3333 23.4423 26.109 18.6667 32 18.6667C37.891 18.6667 42.6667 23.4423 42.6667 29.3333ZM58.6667 32C58.6667 46.7276 46.7276 58.6667 32 58.6667C17.2724 58.6667 5.33333 46.7276 5.33333 32C5.33333 17.2724 17.2724 5.33333 32 5.33333C46.7276 5.33333 58.6667 17.2724 58.6667 32Z" stroke="black" stroke-width="2" stroke-linecap="round" stroke-linejoin="round"/>
</svg>
